
<svg xmlns="http://www.w3.org/2000/svg"
     class="svg-snoweb svg-theme-light"
     x="0"
     y="0"
     width="100%"
     height="100%"
     viewBox="0 0 100 100"
     preserveAspectRatio="xMidYMid meet"
>
<defs>
    <style>
        
            
            
            
        

        .svg-fill-primary {
            fill: #e36577;
        }

        .svg-fill-secondary {
            fill: #e8d450;
        }

        .svg-fill-tertiary {
            fill: #E5E7EB;
        }

        .svg-stroke-primary {
            stroke: #e36577;
        }

        .svg-stroke-secondary {
            stroke: #e8d450;
        }

        .svg-stroke-tertiary {
            stroke: #E5E7EB;
        }
    </style>
</defs>
    <path d="M50,18a4,4,0,0,1,4,4v4a4,4,0,0,1-8,0V22A4,4,0,0,1,50,18ZM66,50A16,16,0,1,1,50,34,16,16,0,0,1,66,50ZM64.2,69.8,67,72.6A4,4,0,0,0,72.6,67l-2.8-2.8a4,4,0,0,0-5.6,5.6Zm8.4-42.4a3.9,3.9,0,0,1,0,5.6l-2.8,2.8a4,4,0,1,1-5.6-5.6L67,27.4A3.9,3.9,0,0,1,72.6,27.4ZM78,54a4,4,0,0,0,0-8H74a4,4,0,0,0,0,8ZM50,70a4,4,0,0,1,4,4v4a4,4,0,0,1-8,0V74A4,4,0,0,1,50,70ZM30.2,35.8a4,4,0,1,0,5.6-5.6L33,27.4A4,4,0,0,0,27.4,33Zm5.6,34L33,72.6A4,4,0,0,1,27.4,67l2.8-2.8a4,4,0,1,1,5.6,5.6ZM26,54a4,4,0,0,0,0-8H22a4,4,0,0,0,0,8Z"
          class="svg-fill-primary" fill-rule="evenodd"/>
</svg>